<svg xmlns="http://www.w3.org/2000/svg" viewBox="0 0 1142.73 270.41"><defs><style>.cls-1{fill:#fff;}</style></defs><title>logo</title><g id="图层_2" data-name="图层 2"><g id="图层_1-2" data-name="图层 1"><path class="cls-1" d="M103.44,1.93,71.93,68.88a5.86,5.86,0,0,1-10.24-.7L30.62,1.93H0L64.43,139.31l0,0a2.68,2.68,0,0,0,4.93,0v0L134.07,1.93Z"/><path class="cls-1" d="M591.91,2.17,560.4,69.12a5.86,5.86,0,0,1-10.24-.7L519.09,2.17H488.47L552.9,139.55l0,0a2.68,2.68,0,0,0,4.93,0v0L622.53,2.17Z"/><rect class="cls-1" x="154.26" y="1.93" width="26.53" height="137.38"/><path class="cls-1" d="M272.19,0a70.5,70.5,0,1,0,70.5,70.5A70.5,70.5,0,0,0,272.19,0Zm0,113.51a43,43,0,1,1,43-43A43,43,0,0,1,272.19,113.51Z"/><path class="cls-1" d="M939.42,0a70.5,70.5,0,1,0,70.5,70.5A70.5,70.5,0,0,0,939.42,0Zm0,113.51a43,43,0,1,1,43-43A43,43,0,0,1,939.42,113.51Z"/><rect class="cls-1" x="642.61" y="1.93" width="26.77" height="137.38"/><rect class="cls-1" x="821.84" y="1.93" width="27.72" height="137.38"/><path class="cls-1" d="M447.84,0V62.47s0,0,0,0a7.24,7.24,0,0,1-12.17,5.28l0,0-.39-.39-45-45L368.83.95l-.1-.1L367.88,0h-1.24a3,3,0,0,0-3,3V138.92h26.71V77.71a7.25,7.25,0,0,1,12.27-5.24l.23.23,0,0h0l45,45L469,138.92l.88.88h0a2.71,2.71,0,0,0,4.62-1.92V0Z"/><path class="cls-1" d="M1116,0V62.47s0,0,0,0a7.24,7.24,0,0,1-12.17,5.28l0,0-.39-.39-45-45L1037,.95l-.1-.1-.85-.85h-1.24a3,3,0,0,0-3,3V138.92h26.71V77.71a7.25,7.25,0,0,1,12.27-5.24l.23.23,0,0h0l45,45,21.19,21.19.88.88h0a2.71,2.71,0,0,0,4.62-1.92V0Z"/><path class="cls-1" d="M788.74,1.93H727.21s-36.09.72-37.52,35.61,37.4,40.63,37.4,40.63l38.83,12.9s8.84,2.57,8.84,9.56c0,6.81-4.78,10.16-8.48,10.16H702.71v27.6H766.4s35.13-5.5,35.13-33-15.89-38.83-29.63-41.34L724.1,48.53s-9.28-1.8-7.32-11.77c1.78-9,13.53-7.53,13.53-7.53h58.31Z"/><polygon class="cls-1" points="154.27 195.85 187.31 195.85 187.31 190.79 198.96 190.79 198.96 196.31 232.08 196.31 232.08 206.2 154.27 206.2 154.27 195.85"/><path class="cls-1" d="M163.85,213.75h12.3s9.85,15.87,13.61,18.05,5.75,1.26,6.9,0,12.5-15.91,13.38-18.05H222.5s-9.51,18.9-20.62,28.71c.08.92,19.63,13.42,27.14,14.49v11.73s-19.78-6.52-32.12-15.64c-5.6-3.07-6.82-.77-9.51,1.84,0,0-22.46,12.8-30.28,14.18V257.33s21.35-8.55,25.38-13.15c2.15-1.9,1.65-1.9.71-2.71S169.68,227.43,163.85,213.75Z"/><path class="cls-1" d="M673.43,191.77h10.06s-.46,3.45,2,3.62,25.49,0,25.49,0v10.12H699.22l-1.16,3.29H711v10H693.26l-6.65,11.47H672.93l7.57-10.57c0-.06.36-.75-.65-.74s-6.92-.14-6.92-.14v-9.94h13.33l1.35-3-14.68-.27V191.77Z"/><polygon class="cls-1" points="695.63 220.48 706.23 220.48 710.95 230.07 700.14 230.27 695.63 220.48"/><path class="cls-1" d="M714.36,195.45v34.82h36.77V195.45Zm26.75,23.1a1.78,1.78,0,0,1-1.43,1.85H726.31c-.89,0-1.54-1.31-1.54-1.31v-12c0-.87,1.24-1.3,1.24-1.3h13.82a1.31,1.31,0,0,1,1.28,1Z"/><path class="cls-1" d="M677.42,233.37v36.71H748.7V233.37Zm61.1,25.38a1.16,1.16,0,0,1-1.16,1.16H688.64a1.16,1.16,0,0,1-1.16-1.16v-.92a1.16,1.16,0,0,1,1.16-1.16h48.73a1.16,1.16,0,0,1,1.16,1.16Zm0-13a1.16,1.16,0,0,1-1.16,1.16H688.64a1.16,1.16,0,0,1-1.16-1.16v-.92a1.16,1.16,0,0,1,1.16-1.16h48.73a1.16,1.16,0,0,1,1.16,1.16Z"/><path class="cls-1" d="M932.53,216.43v53.4h10.34V255.3c0-1,1.21-1.78,1.21-1.78h18.75a1.78,1.78,0,0,1,1.67.83v3.45a3.3,3.3,0,0,1-1.72,2.24l-4.68.11v9.68h16.65v-53.4Zm32.21,26a1.58,1.58,0,0,1-1.58,1.58H943.93a1.58,1.58,0,0,1-1.58-1.58v-.8a1.58,1.58,0,0,1,1.58-1.58h19.23a1.58,1.58,0,0,1,1.58,1.58Zm0-13.21a1.58,1.58,0,0,1-1.58,1.58H943.93a1.58,1.58,0,0,1-1.58-1.58v-.8a1.58,1.58,0,0,1,1.58-1.58h19.23a1.58,1.58,0,0,1,1.58,1.58Z"/><path class="cls-1" d="M932.53,203.16l4.13-11.2h10.28l-3.7,10.55a.65.65,0,0,0,.73.73h18.36s2.12-.49,2.12-1.69V195.7h10.28v18h-42.2Z"/><path class="cls-1" d="M978.33,192h10.34v6.51s20.21-2.3,21.51-3.75v11a150.16,150.16,0,0,1-21.59,3.67v5.05a1.93,1.93,0,0,0,1.72,2h20v10.39H988s-9.67-1.38-9.67-9.88Z"/><path class="cls-1" d="M978.33,231h10.24v8.27s19.46-1,21.76-3.85v11.48s-12.86,2.64-21.76,3.39v7.64s.92,2,2.35,2h19.41s.11,9.82,0,9.93-23.2,0-23.2,0-8.8-1.55-8.8-9.36Z"/><path class="cls-1" d="M413.5,214.46V196.53h33.2v-5.1h11.23v5.06H491.7v18H480.51v-5.25a2.68,2.68,0,0,0-2.58-2.07h-50.2s-2.88.31-2.88,2.2v5Z"/><path class="cls-1" d="M478.21,231.85h13.41V220.93h-46.5l1.72-5.92H435.44l-2.07,5.92-.12.34L413.73,221v10.57s13.39,0,14.44,0,.63.52.63.82-4.92,8-5.92,10.23c-.54,2.24,13.67,12,13.87,12s2.74.9.42,1.49c-4.21,2.15-23.33,2.64-23.33,2.64v11.34c10.08,1.23,33-4.35,35.73-6s4.51-1,7.49-.24c16.17,5.82,34.56,6,34.56,6V259c-11.19.15-25.57-4-25.57-4-.36-.11-.56-.36-.48-.56C476.76,245.87,478.21,231.85,478.21,231.85Zm-23.1,16.93c-1.23.8-3.83.88-5.79,0,0,0-11.11-5.94-11.53-7a1.24,1.24,0,0,1-.13-1.59s3.75-8.5,4.16-8.68h24.41s.65.61,0,2.57S460.63,246.14,455.11,248.79Z"/></g></g></svg>